<?xml version="1.0" standalone="no"?><!DOCTYPE svg PUBLIC "-//W3C//DTD SVG 1.1//EN" "http://www.w3.org/Graphics/SVG/1.1/DTD/svg11.dtd"><svg t="1765097602035" class="icon" viewBox="0 0 1024 1024" version="1.1" xmlns="http://www.w3.org/2000/svg" p-id="5245" xmlns:xlink="http://www.w3.org/1999/xlink" width="32" height="32"><path d="M512 25.412267c-271.616 0-491.810133 219.8528-491.810133 491.076266S240.384 1007.5648 512 1007.5648s491.810133-219.8528 491.810133-491.076267C1003.758933 245.265067 783.581867 25.412267 512 25.412267zM82.858667 654.728533l56.32-69.5296 63.197866 64.7168c16.622933 16.9984 37.768533 32.699733 56.558934 7.0144l149.76-229.5808 143.854933 204.100267s24.337067 44.5952 56.849067 10.018133l150.152533-191.573333 8.942933 42.0864c2.269867 10.6496 12.782933 17.476267 23.466667 15.223467 10.615467-2.2528 17.4592-12.817067 15.189333-23.432534l-19.336533-90.658133c0-0.2048-0.0512-0.341333-0.1024-0.494933-0.0512-0.187733-0.0512-0.341333-0.1024-0.494934-0.0512-0.2048-0.1024-0.341333-0.1536-0.494933-0.0512-0.2048-0.1024-0.341333-0.1536-0.494933-0.0512-0.1536-0.1024-0.290133-0.1536-0.494934-0.0512-0.1536-0.1536-0.290133-0.2048-0.443733s-0.1024-0.290133-0.1536-0.443733c-0.1024-0.2048-0.1536-0.341333-0.2048-0.494934-0.1024-0.1536-0.1536-0.290133-0.238933-0.443733-0.0512-0.1536-0.1024-0.290133-0.2048-0.443733-0.0512-0.1536-0.1536-0.290133-0.2048-0.392534-0.1024-0.1536-0.1536-0.290133-0.238934-0.443733-0.1024-0.1536-0.1536-0.290133-0.238933-0.443733-0.1024-0.1024-0.1536-0.238933-0.238933-0.392534s-0.2048-0.290133-0.290134-0.392533a1.26976 1.26976 0 0 0-0.238933-0.392533 4.727467 4.727467 0 0 0-0.290133-0.392534 4.727467 4.727467 0 0 0-0.290134-0.392533c-0.1024-0.1536-0.2048-0.238933-0.290133-0.392533-0.1024-0.1024-0.2048-0.238933-0.290133-0.341334-0.1024-0.1536-0.2048-0.238933-0.290134-0.341333-0.1024-0.1536-0.238933-0.238933-0.341333-0.392533l-0.341333-0.341334c-0.1024-0.1024-0.2048-0.2048-0.341334-0.290133a1.297067 1.297067 0 0 0-0.341333-0.341333c-0.1024-0.1024-0.2048-0.187733-0.341333-0.290134-0.1024-0.1536-0.238933-0.238933-0.341334-0.341333-0.1536-0.1024-0.238933-0.2048-0.392533-0.290133-0.1024-0.1024-0.238933-0.2048-0.341333-0.290134a4.061867 4.061867 0 0 0-0.392534-0.238933v-0.0512c-0.1536-0.0512-0.238933-0.1536-0.392533-0.238933-0.1536-0.1024-0.238933-0.2048-0.392533-0.238934-0.1536-0.1024-0.238933-0.2048-0.392534-0.290133a1.26976 1.26976 0 0 1-0.392533-0.238933c-0.1536-0.0512-0.290133-0.1536-0.443733-0.2048-0.1536-0.1024-0.290133-0.1536-0.392534-0.238934-0.1536-0.0512-0.290133-0.1536-0.443733-0.2048-0.1536-0.1024-0.290133-0.1536-0.443733-0.2048-0.1536-0.1024-0.290133-0.1536-0.443734-0.2048-0.1536-0.1024-0.290133-0.1536-0.443733-0.2048-0.1024-0.0512-0.238933-0.1536-0.443733-0.2048-0.1536-0.0512-0.290133-0.1024-0.443734-0.1536s-0.290133-0.1024-0.443733-0.1536-0.290133-0.1024-0.443733-0.1536-0.290133-0.1024-0.443734-0.1536c-0.2048 0-0.341333-0.0512-0.494933-0.1024-0.1536-0.0512-0.290133-0.1024-0.443733-0.1024-0.2048-0.0512-0.341333-0.1024-0.494934-0.1024-0.1536-0.0512-0.290133-0.0512-0.494933-0.1024-0.1536-0.0512-0.290133-0.0512-0.443733-0.1024-0.2048 0-0.341333 0-0.494934-0.0512-0.1536 0-0.341333-0.0512-0.494933-0.0512s-0.290133 0-0.494933-0.0512h-0.494934c-0.1536 0-0.290133 0-0.494933-0.0512h-0.494933c-0.1536 0-0.290133 0-0.494934 0.0512h-0.494933c-0.1536 0-0.290133 0-0.494933 0.0512-0.1536 0-0.290133 0-0.494934 0.0512-0.1536 0-0.290133 0-0.494933 0.0512-0.1536 0-0.341333 0.0512-0.494933 0.0512a1.706667 1.706667 0 0 1-0.494934 0.1024c-0.1536 0.0512-0.341333 0.0512-0.494933 0.1024l-90.8288 19.3024c-10.615467 2.2528-17.4592 12.765867-15.189333 23.381334 2.269867 10.6496 12.782933 17.476267 23.415466 15.223466l44.305067-9.4208-137.1648 177.8176-157.525333-220.1088s-21.828267-29.115733-46.2848-2.013866l-153.992534 238.318933-64.426666-62.225067s-27.153067-34.372267-52.4288-2.304l-42.990934 55.739734a449.575253 449.575253 0 0 1-10.1376-95.163734C61.166933 267.861333 262.997333 66.321067 512 66.321067c248.951467 0 450.781867 201.540267 450.781867 450.167466 0 119.381333-47.5136 233.898667-132.0448 318.276267-84.497067 84.411733-199.185067 131.857067-318.737067 131.857067-200.6528-0.017067-370.670933-130.935467-429.141333-311.893334zM787.797333 393.130667" fill="#EB3D2B" p-id="5246"></path></svg>