<?xml version="1.0" standalone="no"?><!DOCTYPE svg PUBLIC "-//W3C//DTD SVG 1.1//EN" "http://www.w3.org/Graphics/SVG/1.1/DTD/svg11.dtd"><svg t="1768196825533" class="icon" viewBox="0 0 1024 1024" version="1.1" xmlns="http://www.w3.org/2000/svg" p-id="6128" xmlns:xlink="http://www.w3.org/1999/xlink" width="200" height="200"><path d="M554.666667 853.333333h-85.333334v42.666667h-42.666666v-42.666667c-93.866667 0-170.666667-76.8-170.666667-170.666666h42.666667c0 72.533333 55.466667 128 128 128v-256c-93.866667 0-170.666667-76.8-170.666667-170.666667s76.8-170.666667 170.666667-170.666667V170.666667h42.666666v42.666666h85.333334V170.666667h42.666666v42.666666c93.866667 0 170.666667 76.8 170.666667 170.666667h-42.666667c0-72.533333-55.466667-128-128-128v256h17.066667c21.333333 0 46.933333 8.533333 68.266667 21.333333l4.266666 4.266667c4.266667 4.266667 8.533333 4.266667 12.8 8.533333 42.666667 29.866667 68.266667 81.066667 68.266667 136.533334 0 93.866667-76.8 170.666667-170.666667 170.666666v42.666667h-42.666666v-42.666667z m0-341.333333V256h-85.333334v256h85.333334z m0 298.666667v-256h-85.333334v256h85.333334z m42.666666 0c72.533333 0 128-55.466667 128-128s-55.466667-128-128-128v256zM426.666667 256C354.133333 256 298.666667 311.466667 298.666667 384s55.466667 128 128 128V256z" fill="#444444" p-id="6129"></path></svg>